# xmcd
#
# Track frame offsets:
#	150
#	16751
#	38724
#	55816
#	72462
#	89259
#	105395
#
# Disc length: 1611 seconds
#
# Revision: 0
# Processed by: cddbd v1.5.2PL0 Copyright (c) Steve Scherf et al.
# Submitted via: EasyCDDAExtractor 11.0.0.1
#
DISCID=4e064907
DTITLE=ΖΑΡΑΛΗΣ ΝΙΚΟΣ - ΑΛΗΘΕΥΕΙ
DYEAR=1997
DGENRE=ΛΑΪΚΑ
TTITLE0=Ζάραλης Νίκος_01 Αληθεύει
TTITLE1=Ζάραλης Νίκος_02 Αναπάντητες οι κλήσεις
TTITLE2=Ζάραλης Νίκος_03 Ασημένιο μου αστέρι
TTITLE3=Ζάραλης Νίκος_04 Δίνε του
TTITLE4=Ζάραλης Νίκος_05 Δε σε μπορώ
TTITLE5=Ζάραλης Νίκος_06 Άν ήξερες
TTITLE6=Ζάραλης Νίκος_07 Είσαι το επίκεντρό μου
EXTD=
EXTT0=
EXTT1=
EXTT2=
EXTT3=
EXTT4=
EXTT5=
EXTT6=
PLAYORDER=
